<svg version="1" xmlns="http://www.w3.org/2000/svg" width="933.333" height="933.333" viewBox="0 0 700.000000 700.000000"><path d="M341.3 16.3c-4.5 6.7-14.1 21-21.4 31.7-7.2 10.7-21.1 31.2-30.8 45.5-9.6 14.3-21.5 31.8-26.3 38.9-4.8 7.1-8.8 13.2-8.8 13.6 0 .6 7.1 4.4 36.5 19.5 10.5 5.4 21.7 11.2 25 13 3.3 1.7 12.4 6.5 20.2 10.5l14.3 7.2 11.2-5.7c6.2-3.2 16.7-8.6 23.3-12 13-6.8 32.5-16.9 50.3-26 6.1-3.2 11.2-6.1 11.2-6.5 0-.3-4.4-7.1-9.8-15.1-14.9-22-44-65.1-59.5-87.9-7.6-11.3-16.6-24.7-20-29.7-3.4-5.1-6.4-9.3-6.7-9.3-.3 0-4.2 5.5-8.7 12.3z"/><path d="M221.3 193.8c-1.7 2.6-8.9 13.2-16 23.7-14.7 21.7-38.9 57.5-57.1 84.5-6.9 10.2-14 20.7-15.9 23.4-1.8 2.6-3.3 5.1-3.3 5.5 0 .3 5.1 3.2 11.3 6.4 6.1 3.2 16.2 8.4 22.2 11.6 6.1 3.1 19.1 9.9 29 15 9.9 5.2 20.7 10.8 24 12.6 5.8 3.1 18.9 10 49 25.5 7.7 4 18.1 9.4 23 12 5 2.6 14.9 7.8 22 11.5 27.9 14.5 38 19.8 38.9 20.6.5.4 7-2.4 14.5-6.3 44.6-23.1 90.2-46.9 119.6-62.3 5.5-2.9 17.2-9 26-13.6 8.8-4.5 22.8-11.8 31-16.1 8.3-4.3 18.7-9.7 23.3-12 4.5-2.3 8.2-4.5 8.2-4.9 0-.4-1.5-2.9-3.3-5.5-1.9-2.7-9-13.2-15.9-23.4-6.8-10.2-19-28.2-27-40-31.9-47.1-37.1-54.9-43.1-63.7-5.8-8.7-8-10.5-10.3-8.4-.5.5-7 4-14.4 7.8-17.3 8.9-52.4 27.2-73.5 38.3-4.9 2.6-14.5 7.6-21.2 11l-12.3 6.3-13.2-6.8c-7.3-3.7-16.4-8.5-20.3-10.5-3.8-2.1-13.7-7.2-22-11.5-8.2-4.3-19.5-10.1-25-13-5.5-2.9-16.7-8.7-25-13-8.2-4.3-15.4-8.2-15.9-8.6-2.1-1.9-4.2-.7-7.3 3.9z"/><path d="M99 374.9c0 .5-.6 1.6-1.2 2.3a34 34 0 0 0-2.3 3c-.5.9-4.9 7.4-9.7 14.5-4.8 7-15.2 22.5-23.2 34.3-8 11.8-15.1 22.2-15.6 23-28 41.1-43.3 64-42.9 64.4.2.2 6.7 3.6 14.4 7.6 7.7 4 17.2 8.9 21 11 3.9 2 14.7 7.7 24 12.5 9.4 4.8 21.5 11.1 27 14 5.5 2.9 16.8 8.7 25 13 16 8.3 31.8 16.5 48 25 5.5 2.9 16.8 8.7 25 13 15.7 8.1 29.5 15.3 49.3 25.7 6.4 3.4 12.5 6.5 13.5 7 .9.4 2.7 1.3 4 2 9.4 5 18.4 9.6 32.2 16.8 8.8 4.5 21.4 11.1 28 14.5 6.6 3.5 17 8.9 23.2 12.2l11.2 5.8 6.3-3.2c3.5-1.8 12.6-6.5 20.3-10.6 13.3-6.9 33.7-17.5 63.5-33 7.4-3.8 18-9.3 23.5-12.2 11-5.8 27-14.1 50-26 8.3-4.3 19.1-9.9 24-12.5 5-2.6 15.3-8 23-12 7.7-4 18.5-9.6 24-12.5 5.5-2.9 15.9-8.3 23-12 28.9-15 42.5-22 52-27 5.5-2.9 15.9-8.3 23-12 7.2-3.7 13.2-6.9 13.4-7.1.4-.3-18.4-29-19.9-30.4-.3-.3-3.5-5-7.2-10.5-3.6-5.5-12.9-19.2-20.5-30.5s-21.5-31.8-30.7-45.5c-9.3-13.8-17.1-25.2-17.3-25.5-.4-.5-5.5 2.1-32.3 16.1-8.5 4.4-23.4 12.1-33 17.1-16.3 8.5-22.1 11.5-45.5 23.8-4.9 2.6-16.2 8.5-25 13-8.8 4.6-19.6 10.2-24 12.5-4.4 2.3-15.2 7.9-24 12.5-8.8 4.5-18.7 9.7-22 11.5-22.2 12-45.3 23.3-46.1 22.6-.5-.5-9.4-5.3-19.9-10.6-10.4-5.4-20.3-10.5-22-11.5-1.6-1-10.5-5.6-19.6-10.3-26.8-13.9-35.8-18.5-46.4-24-5.5-2.9-18.1-9.5-28-14.6-9.9-5.2-21.1-11.1-25-13.1-3.8-2.1-13.7-7.2-22-11.5-8.2-4.3-19.5-10.1-25-13C98.3 372.4 99 372.8 99 374.9z"/></svg>